<svg width="24" height="24" viewBox="0 0 24 24" fill="none" xmlns="http://www.w3.org/2000/svg">
<path fill-rule="evenodd" clip-rule="evenodd" d="M12 3C10.3431 3 9 4.34315 9 6C9 7.65685 10.3431 9 12 9C13.6569 9 15 7.65685 15 6C15 4.34315 13.6569 3 12 3ZM7 6C7 3.23858 9.23858 1 12 1C14.7614 1 17 3.23858 17 6C17 8.76142 14.7614 11 12 11C9.23858 11 7 8.76142 7 6ZM5.77844 14.15C7.77388 13.2555 10.184 13 12 13C12.3359 13 12.6888 13.0087 13.0533 13.0282C13.6048 13.0576 14.028 13.5285 13.9986 14.08C13.9692 14.6315 13.4982 15.0547 12.9467 15.0253C12.6189 15.0078 12.3014 15 12 15C10.316 15 8.22612 15.2445 6.59656 15.975C5.00295 16.6894 4 17.778 4 19.5V20.5C4 20.7821 4.23155 21 4.48169 21H10C10.5523 21 11 21.4477 11 22C11 22.5523 10.5523 23 10 23H4.48169C3.09519 23 2 21.8546 2 20.5V19.5C2 16.722 3.74705 15.0606 5.77844 14.15ZM17.6719 13.9142C18.2573 13.3289 19.0512 13 19.879 13C20.7068 13 21.5007 13.3289 22.0861 13.9142C22.6715 14.4996 23.0003 15.2935 23.0003 16.1213C23.0003 16.9491 22.6715 17.7431 22.0861 18.3284L17.7071 22.7074C17.5196 22.895 17.2652 23.0003 17 23.0003H14.002C13.45 23.0003 13.0024 22.553 13.002 22.001L13 19.001C12.9998 18.7355 13.1052 18.4809 13.2929 18.2932L17.6719 13.9142ZM19.879 15C19.5816 15 19.2964 15.1181 19.0861 15.3284L15.0003 19.4143L15.0013 21.0003H16.5858L20.6719 16.9142C20.8822 16.7039 21.0003 16.4187 21.0003 16.1213C21.0003 15.8239 20.8822 15.5387 20.6719 15.3284C20.4616 15.1181 20.1764 15 19.879 15Z" fill="white"/>
</svg>
