<svg width="35" height="35" viewBox="0 0 35 35" fill="none" xmlns="http://www.w3.org/2000/svg">
<path d="M26.083 2.91699C28.9114 2.91699 30.3264 2.91624 31.2051 3.79492C32.0838 4.6736 32.083 6.08857 32.083 8.91699V26.083C32.083 28.9114 32.0838 30.3264 31.2051 31.2051C30.3264 32.0838 28.9114 32.083 26.083 32.083H8.91699C6.08857 32.083 4.6736 32.0838 3.79492 31.2051C2.91624 30.3264 2.91699 28.9114 2.91699 26.083V8.91699C2.91699 6.08857 2.91624 4.6736 3.79492 3.79492C4.6736 2.91624 6.08857 2.91699 8.91699 2.91699H26.083ZM25.3467 12.293C24.8872 11.9866 24.2663 12.1109 23.96 12.5703L19.082 19.8867L17.707 17.1357C17.0203 15.7623 15.1058 15.6433 14.2539 16.9209L9.37695 24.2373L9.32422 24.3252C9.08728 24.7731 9.22356 25.3369 9.6543 25.624C10.085 25.9107 10.6573 25.8195 10.9795 25.4287L11.041 25.3467L15.918 18.0303L17.2939 20.7812C17.9809 22.1542 19.8943 22.2733 20.7461 20.9961L25.624 13.6797C25.9302 13.2202 25.806 12.5993 25.3467 12.293Z" fill="url(#paint0_linear_4029_95)"/>
<defs>
<linearGradient id="paint0_linear_4029_95" x1="17.5" y1="2.91699" x2="17.5" y2="32.083" gradientUnits="userSpaceOnUse">
<stop stop-color="#793FEF"/>
<stop offset="1" stop-color="#E86842"/>
</linearGradient>
</defs>
</svg>
