<svg width="35" height="35" viewBox="0 0 35 35" fill="none" xmlns="http://www.w3.org/2000/svg">
<path fill-rule="evenodd" clip-rule="evenodd" d="M18.9583 24.4317V20.4167H12.859C10.5013 20.4167 8.50232 22.1503 8.16889 24.4844C7.72709 27.577 10.3469 30.2431 13.4467 29.8556L14.2599 29.754C16.9441 29.4184 18.9583 27.1367 18.9583 24.4317Z" fill="white"/>
<path d="M18.9583 11.6667V10.7749C18.9583 8.41481 18.9583 7.23477 19.6495 6.41885C20.3407 5.60292 21.5047 5.40893 23.8327 5.02093L27.2695 4.44812C27.4676 4.41511 27.5666 4.39861 27.6201 4.45648C27.6735 4.51436 27.6491 4.61177 27.6004 4.80656L26.2948 10.0293C26.273 10.1163 26.2621 10.1598 26.2315 10.189C26.2009 10.2181 26.157 10.2269 26.069 10.2445L18.9583 11.6667ZM18.9583 11.6667V20.4167M18.9583 20.4167V24.4317C18.9583 27.1367 16.9441 29.4184 14.2599 29.754L13.4467 29.8556C10.3469 30.2431 7.72709 27.577 8.16889 24.4844C8.50232 22.1503 10.5013 20.4167 12.859 20.4167H18.9583Z" stroke="white" stroke-width="2"/>
</svg>
