<svg width="35" height="35" viewBox="0 0 35 35" fill="none" xmlns="http://www.w3.org/2000/svg">
<path d="M17.5 24.333C19.2059 24.333 20.8643 24.8961 22.2178 25.9346C23.4866 26.9081 24.4208 28.2491 24.8965 29.7705L24.9707 30.0244C22.7855 31.3307 20.231 32.083 17.5 32.083C14.7687 32.083 12.2137 31.331 10.0283 30.0244C10.4764 28.3983 11.4433 26.962 12.7822 25.9346C14.1357 24.8961 15.794 24.333 17.5 24.333ZM17.5 2.91699C25.5542 2.91699 32.083 9.44585 32.083 17.5C32.083 22.0711 29.9789 26.1494 26.6875 28.8232C26.0598 27.054 24.9335 25.4971 23.4355 24.3477C21.7328 23.0411 19.6462 22.333 17.5 22.333C15.3538 22.333 13.2672 23.0411 11.5645 24.3477C10.0663 25.4972 8.93827 27.0538 8.31055 28.8232C5.01983 26.1494 2.91699 22.0706 2.91699 17.5C2.91699 9.44585 9.44585 2.91699 17.5 2.91699ZM17.5 7.75C14.5315 7.75 12.125 10.1565 12.125 13.125C12.125 16.0935 14.5315 18.5 17.5 18.5C20.4685 18.5 22.875 16.0935 22.875 13.125C22.875 10.1565 20.4685 7.75 17.5 7.75ZM17.5 9.75C19.364 9.75 20.875 11.261 20.875 13.125C20.875 14.989 19.364 16.5 17.5 16.5C15.636 16.5 14.125 14.989 14.125 13.125C14.125 11.261 15.636 9.75 17.5 9.75Z" fill="url(#paint0_linear_2005_181)"/>
<rect x="3.41666" y="3.41669" width="28.1667" height="28.1667" rx="14.0833" stroke="url(#paint1_linear_2005_181)"/>
<defs>
<linearGradient id="paint0_linear_2005_181" x1="17.5" y1="2.91699" x2="17.5" y2="32.083" gradientUnits="userSpaceOnUse">
<stop stop-color="#793FEF"/>
<stop offset="1" stop-color="#E86842"/>
</linearGradient>
<linearGradient id="paint1_linear_2005_181" x1="17.5" y1="2.91669" x2="17.5" y2="32.0834" gradientUnits="userSpaceOnUse">
<stop stop-color="#793FEF"/>
<stop offset="1" stop-color="#E86842"/>
</linearGradient>
</defs>
</svg>
