<svg width="35" height="35" viewBox="0 0 35 35" fill="none" xmlns="http://www.w3.org/2000/svg">
<path d="M16.042 5.83301C21.6797 5.83318 26.25 10.4042 26.25 16.042C26.2498 21.6796 21.6796 26.2498 16.042 26.25C10.4042 26.25 5.83318 21.6797 5.83301 16.042C5.83301 10.4041 10.4041 5.83301 16.042 5.83301ZM16.041 9.20801C15.144 9.20809 14.2555 9.38526 13.4268 9.72852C12.5978 10.0719 11.8435 10.5745 11.209 11.209C10.5745 11.8435 10.0719 12.5978 9.72852 13.4268C9.38526 14.2555 9.20809 15.144 9.20801 16.041C9.20801 16.5932 9.65587 17.0408 10.208 17.041C10.7603 17.041 11.208 16.5933 11.208 16.041C11.2081 15.4065 11.3334 14.7776 11.5762 14.1914C11.8191 13.6052 12.1753 13.0727 12.624 12.624C13.0727 12.1753 13.6052 11.8191 14.1914 11.5762C14.7776 11.3334 15.4065 11.2081 16.041 11.208C16.5933 11.208 17.041 10.7603 17.041 10.208C17.0408 9.65587 16.5932 9.20801 16.041 9.20801Z" fill="url(#paint0_linear_2014_125)"/>
<path d="M29.1667 29.1667L26.25 26.25" stroke="url(#paint1_linear_2014_125)" stroke-width="2" stroke-linecap="round"/>
<defs>
<linearGradient id="paint0_linear_2014_125" x1="16.0415" y1="5.83301" x2="16.0415" y2="26.25" gradientUnits="userSpaceOnUse">
<stop stop-color="#793FEF"/>
<stop offset="1" stop-color="#E86842"/>
</linearGradient>
<linearGradient id="paint1_linear_2014_125" x1="27.7083" y1="26.25" x2="27.7083" y2="29.1667" gradientUnits="userSpaceOnUse">
<stop stop-color="#793FEF"/>
<stop offset="1" stop-color="#E86842"/>
</linearGradient>
</defs>
</svg>
